<?xml version="1.0" standalone="no"?>
<!DOCTYPE svg PUBLIC "-//W3C//DTD SVG 20010904//EN"
 "http://www.w3.org/TR/2001/REC-SVG-20010904/DTD/svg10.dtd">
<svg version="1.0" xmlns="http://www.w3.org/2000/svg"
 width="1083.000000pt" height="1083.000000pt" viewBox="0 0 1083.000000 1083.000000"
 preserveAspectRatio="xMidYMid meet">
<metadata>
Created by potrace 1.11, written by Peter Selinger 2001-2013
</metadata>
<g transform="translate(0.000000,1083.000000) scale(0.100000,-0.100000)"
fill="#000000" stroke="none">
<path d="M0 5420 l0 -2770 5415 0 5415 0 0 1825 0 1825 -60 0 -60 0 0 65 0 65
-65 0 -65 0 0 60 0 60 -60 0 -60 0 0 65 0 65 -65 0 -65 0 0 60 0 60 -65 0 -65
0 0 65 0 65 -60 0 -60 0 0 65 0 65 -65 0 -65 0 0 60 0 60 -60 0 -60 0 0 65 0
65 -65 0 -65 0 0 60 0 60 -65 0 -65 0 0 65 0 65 -60 0 -60 0 0 125 0 125 -125
0 -125 0 0 -125 0 -125 -65 0 -65 0 0 -65 0 -65 -65 0 -65 0 0 -60 0 -60 -60
0 -60 0 0 -65 0 -65 -65 0 -65 0 0 -60 0 -60 -60 0 -60 0 0 -65 0 -65 -65 0
-65 0 0 -65 0 -65 -65 0 -65 0 0 -60 0 -60 -60 0 -60 0 0 -65 0 -65 -65 0 -65
0 0 -60 0 -60 -60 0 -60 0 0 -65 0 -65 -65 0 -65 0 0 945 0 945 -3905 0 -3905
0 0 -2770z"/>
</g>
</svg>
